<svg width="49" height="50" viewBox="0 0 49 50" fill="none" xmlns="http://www.w3.org/2000/svg">
<path fill-rule="evenodd" clip-rule="evenodd" d="M40.1435 36.4669H45.4841C46.4127 36.4668 47.3037 36.8417 47.9624 37.5096C48.6211 38.1775 48.9941 39.0843 49 40.0318V46.4351C48.9942 47.3788 48.6242 48.282 47.9703 48.9493C47.3164 49.6166 46.4311 49.994 45.5063 50H39.2311C38.3064 49.994 37.4211 49.6166 36.7672 48.9493C36.1133 48.282 35.7433 47.3788 35.7375 46.4351V40.9855C35.6154 38.7297 34.7443 36.5834 33.2675 34.9001L32.6667 34.287C31.0346 32.7942 28.9572 31.9063 26.7697 31.7666H21.4291C20.5044 31.7606 19.6191 31.3831 18.9652 30.7158C18.3113 30.0486 17.9413 29.1453 17.9355 28.2017V22.752C17.8134 20.4962 16.9423 18.35 15.4655 16.6667L14.8647 16.0536C13.1977 14.5144 11.0577 13.6153 8.812 13.5105H3.4936C2.5671 13.5105 1.6784 13.1349 1.0233 12.4663C0.3681 11.7978 0 10.891 0 9.9455V3.565C0 2.6195 0.3681 1.7127 1.0233 1.0441C1.6784 0.375602 2.5671 0 3.4936 0H9.7466C10.6732 0 11.5618 0.375602 12.217 1.0441C12.8721 1.7127 13.2402 2.6195 13.2402 3.565V8.9918C13.357 11.2489 14.2288 13.3969 15.7103 15.0772L16.3111 15.6903C17.9642 17.182 20.0699 18.0479 22.2747 18.1426H27.6153C28.5401 18.1485 29.4253 18.526 30.0793 19.1933C30.7332 19.8606 31.1031 20.7639 31.109 21.7075V27.1571C31.2257 29.4142 32.0976 31.5622 33.579 33.2426L34.1798 33.8556C35.814 35.4003 37.9204 36.3226 40.1435 36.4669ZM20.5268 14.3659H25.9181C28.149 14.4927 30.2712 15.3716 31.9384 16.8594L32.1406 17.0841C33.6361 18.7464 34.5162 20.8714 34.634 23.1044V28.4732C34.634 29.4085 35.0056 30.3056 35.667 30.967C36.3284 31.6284 37.2255 32 38.1609 32H44.4732C45.4085 32 46.3056 31.6284 46.967 30.967C47.6284 30.3056 48 29.4085 48 28.4732V22.1609C48 21.2255 47.6284 20.3285 46.967 19.6671C46.3056 19.0057 45.4085 18.6341 44.4732 18.6341H39.1043C36.8714 18.5162 34.7464 17.6361 33.084 16.1406L32.8594 15.9384C31.3686 14.2731 30.4892 12.1499 30.3659 9.9181V4.5268C30.3659 3.5915 29.9944 2.6944 29.333 2.033C28.6715 1.3716 27.7745 1 26.8391 1H20.5268C19.5914 1 18.6944 1.3716 18.033 2.033C17.3716 2.6944 17 3.5915 17 4.5268V10.8392C17 11.7745 17.3716 12.6715 18.033 13.3329C18.6944 13.9943 19.5914 14.3659 20.5268 14.3659ZM44.5697 1H38.4302C36.5358 1 35 2.5357 35 4.4302V10.5697C35 12.4642 36.5358 14 38.4302 14H44.5697C46.4642 14 48 12.4642 48 10.5697V4.4302C48 2.5357 46.4642 1 44.5697 1ZM10.3059 36H3.6941C1.6539 36 0 37.5358 0 39.4303V45.5698C0 47.4643 1.6539 49 3.6941 49H10.3059C12.3461 49 14 47.4643 14 45.5698V39.4303C14 37.5358 12.3461 36 10.3059 36ZM22.1043 35.634H27.4732C28.4085 35.634 29.3056 36.0056 29.967 36.667C30.6284 37.3284 31 38.2255 31 39.1608V45.4731C31 46.4085 30.6284 47.3056 29.967 47.967C29.3056 48.6284 28.4085 48.9999 27.4732 48.9999H21.1833C20.7183 49.0029 20.2573 48.9138 19.8268 48.7379C19.3963 48.562 19.0048 48.3027 18.675 47.9749C18.3451 47.6471 18.0833 47.2573 17.9046 46.8279C17.726 46.3986 17.634 45.9382 17.634 45.4731V40.1043C17.5162 37.8714 16.6361 35.7464 15.1406 34.084L14.9384 33.8594C13.2712 32.3716 11.149 31.4927 8.9181 31.3659H3.5268C2.5914 31.3659 1.6944 30.9944 1.033 30.333C0.371597 29.6715 0 28.7745 0 27.8391V21.5268C0 20.5914 0.371597 19.6944 1.033 19.033C1.6944 18.3716 2.5914 18 3.5268 18H9.9514C10.8595 18.0289 11.7214 18.4071 12.3575 19.0557C12.9936 19.7044 13.3548 20.5735 13.3659 21.4819V26.8732C13.4791 29.1206 14.3591 31.2613 15.8594 32.9384L16.084 33.1406C17.7464 34.6361 19.8714 35.5161 22.1043 35.634Z" fill="url(#paint0_linear_145_1310)"/>
<defs>
<linearGradient id="paint0_linear_145_1310" x1="6" y1="6" x2="27.1247" y2="50.122" gradientUnits="userSpaceOnUse">
<stop stop-color="#3183ff"/>
<stop offset="1" stop-color="#c9e5ff"/>
</linearGradient>
</defs>
</svg>
